<svg width="32" height="32" viewBox="0 0 32 32" fill="none" xmlns="http://www.w3.org/2000/svg">
  <defs>
    <radialGradient id="irisGrad_icon" cx="50%" cy="45%" r="55%" fx="40%" fy="35%">
      <stop offset="0%" stop-color="#ffd280"/>
      <stop offset="35%" stop-color="#F7931A"/>
      <stop offset="70%" stop-color="#c2620a"/>
      <stop offset="100%" stop-color="#7c3d12"/>
    </radialGradient>
    <radialGradient id="shimmerGrad_icon" cx="35%" cy="30%" r="65%">
      <stop offset="0%" stop-color="#ffffff" stop-opacity="0.9"/>
      <stop offset="40%" stop-color="#ffe4a0" stop-opacity="0.6"/>
      <stop offset="100%" stop-color="#F7931A" stop-opacity="0.1"/>
    </radialGradient>
    <linearGradient id="foilGrad_icon" x1="0%" y1="0%" x2="100%" y2="100%">
      <stop offset="0%" stop-color="#fff7e6" stop-opacity="0.7"/>
      <stop offset="30%" stop-color="#F7931A" stop-opacity="0.3"/>
      <stop offset="60%" stop-color="#ffcf6e" stop-opacity="0.8"/>
      <stop offset="100%" stop-color="#c2620a" stop-opacity="0.4"/>
    </linearGradient>
    <filter id="iconShadow_icon" x="-10%" y="-10%" width="120%" height="130%">
      <feDropShadow dx="0" dy="1" stdDeviation="1" flood-opacity="0.15"/>
    </filter>
    <filter id="eyeGlow_icon" x="-20%" y="-40%" width="140%" height="180%">
      <feGaussianBlur stdDeviation="0.6" result="blur"/>
      <feComposite in="SourceGraphic" in2="blur" operator="over"/>
    </filter>
  </defs>
  <rect width="32" height="32" rx="8" ry="8" fill="#F7931A" filter="url(#iconShadow_icon)"/>
  <rect width="32" height="32" rx="8" ry="8" fill="url(#foilGrad_icon)"/>
  <g filter="url(#eyeGlow_icon)">
    <path d="M6.4 16 Q11.2 8.8 16 8.8 Q20.8 8.8 25.6 16 Q20.8 23.2 16 23.2 Q11.2 23.2 6.4 16Z" fill="white" fill-opacity="0.95"/>
    <circle cx="16" cy="16" r="5.2" fill="url(#irisGrad_icon)"/>
    <circle cx="16" cy="16" r="2.4" fill="#1a0a00"/>
    <circle cx="16" cy="16" r="5.2" fill="url(#shimmerGrad_icon)"/>
    <ellipse cx="14.56" cy="14.24" rx="1.04" ry="0.8" fill="white" fill-opacity="0.9" transform="rotate(-10 14.56 14.24)"/>
    <ellipse cx="17.6" cy="17.2" rx="0.48" ry="0.36" fill="white" fill-opacity="0.5"/>
  </g>
</svg>
